<svg
      width="272"
      height="193"
      viewBox="0 0 272 193"
      fill="none"
      xmlns="http://www.w3.org/2000/svg"
    >
      <path
        d="M97.5665 111.073C106.888 93.5657 124.669 80.1227 143.492 81.4177C129.607 97.5382 121.511 118.383 120.636 140.263C120.327 148.702 120.806 158.124 115.557 164.443C112.292 168.375 107.3 170.28 102.393 170.679C97.4846 171.079 92.5778 170.132 87.7354 169.189L86.5607 169.574C86.1135 149.441 88.245 128.581 97.5665 111.073Z"
        fill="#F0F0F0"
      />
      <path
        d="M143.52 81.8392C129.6 88.9935 117.732 100.942 110.446 115.514C108.871 118.664 107.53 122.007 106.945 125.54C106.36 129.076 106.768 132.441 107.899 135.799C108.933 138.869 110.324 141.881 110.641 145.166C110.975 148.628 109.782 151.865 107.634 154.434C105.007 157.578 101.478 159.526 97.9647 161.303C94.0642 163.275 89.9835 165.259 87.2208 168.941C86.8861 169.387 86.2573 168.806 86.5915 168.361C91.3981 161.955 99.6257 160.75 105.331 155.59C107.993 153.182 109.992 149.903 109.866 146.06C109.756 142.7 108.324 139.593 107.252 136.494C106.127 133.241 105.565 129.969 105.969 126.501C106.382 122.952 107.603 119.547 109.096 116.367C112.463 109.197 117.07 102.613 122.348 96.9225C128.414 90.381 135.483 84.9956 143.25 80.9993C143.731 80.7522 143.997 81.5937 143.52 81.8392Z"
        fill="white"
      />
      <path
        d="M112.58 110.644C110.446 108.978 108.937 106.557 108.321 103.812C107.705 101.067 108.022 98.1781 109.217 95.6606C109.461 95.1521 110.212 95.532 109.969 96.0412C108.852 98.3834 108.556 101.075 109.135 103.629C109.713 106.184 111.128 108.433 113.123 109.972C113.557 110.307 113.011 110.977 112.58 110.644Z"
        fill="white"
      />
      <path
        d="M107.183 134.316C112.53 133.482 117.386 130.527 120.783 126.04C121.119 125.595 121.748 126.175 121.412 126.62C117.869 131.282 112.81 134.346 107.244 135.201C106.713 135.283 106.655 134.397 107.183 134.316V134.316Z"
        fill="white"
      />
      <path
        d="M128.825 91.4731C129.525 92.3014 130.406 92.9311 131.39 93.3057C132.374 93.6803 133.43 93.7881 134.463 93.6193C134.992 93.5311 135.05 94.4168 134.524 94.5045C133.382 94.6853 132.216 94.5648 131.128 94.1535C130.04 93.7422 129.063 93.0526 128.282 92.145C128.201 92.0661 128.152 91.9574 128.144 91.8412C128.136 91.7249 128.17 91.6098 128.239 91.5191C128.311 91.4305 128.413 91.376 128.523 91.3674C128.633 91.3588 128.741 91.3968 128.825 91.4731Z"
        fill="white"
      />
      <path
        d="M180.943 136.648C180.614 136.713 180.285 136.778 179.953 136.85C175.533 137.75 171.189 139.032 166.964 140.683C166.635 140.806 166.304 140.935 165.979 141.067C155.839 145.161 146.499 151.229 138.434 158.964C135.228 162.045 132.245 165.382 129.513 168.946C125.74 173.868 122.015 179.526 117.084 182.735C116.573 183.076 116.043 183.383 115.497 183.654L87.0917 171.074C87.0406 171.011 86.9865 170.955 86.9351 170.891L85.7794 170.444C85.9083 170.25 86.0459 170.052 86.1748 169.857C86.2492 169.744 86.3298 169.634 86.4041 169.521C86.4557 169.446 86.5076 169.372 86.5501 169.302C86.5672 169.277 86.5846 169.252 86.599 169.234C86.6416 169.164 86.6881 169.103 86.7279 169.04C87.4942 167.927 88.2691 166.819 89.0527 165.714C89.0554 165.707 89.0554 165.707 89.0644 165.703C95.0551 157.302 101.755 149.362 109.371 142.76C109.601 142.561 109.832 142.355 110.074 142.163C113.523 139.207 117.192 136.557 121.044 134.24C123.158 132.978 125.33 131.831 127.552 130.804C133.298 128.161 139.398 126.5 145.627 125.882C158.046 124.651 170.696 127.674 180.221 136.004C180.464 136.217 180.702 136.427 180.943 136.648Z"
        fill="#F0F0F0"
      />
      <path
        d="M180.729 137.004C165.581 133.769 149.367 135.68 135.333 142.631C132.299 144.134 129.344 145.941 126.884 148.386C124.423 150.833 122.852 153.783 121.861 157.191C120.956 160.306 120.367 163.605 118.768 166.432C117.083 169.411 114.305 171.229 111.141 171.899C107.27 172.72 103.354 172.007 99.5474 171.167C95.3206 170.235 90.944 169.196 86.6619 170.36C86.143 170.501 85.9684 169.633 86.4864 169.492C93.9367 167.467 101.185 171.794 108.651 171.342C112.134 171.13 115.579 169.797 117.645 166.648C119.452 163.894 120.061 160.493 120.952 157.33C121.888 154.008 123.285 151.035 125.563 148.525C127.894 145.958 130.789 144.024 133.774 142.445C140.506 138.884 147.897 136.589 155.32 135.438C163.852 134.114 172.533 134.359 180.988 136.161C181.511 136.272 181.249 137.115 180.729 137.004V137.004Z"
        fill="white"
      />
      <path
        d="M139.783 140.115C139.019 137.413 139.179 134.509 140.235 131.922C141.291 129.334 143.174 127.232 145.547 125.99C146.028 125.74 146.414 126.526 145.932 126.776C143.72 127.929 141.966 129.887 140.988 132.299C140.009 134.71 139.87 137.416 140.596 139.927C140.753 140.473 139.94 140.658 139.783 140.115Z"
        fill="white"
      />
      <path
        d="M122.125 155.546C126.865 158.317 132.409 159.079 137.651 157.68C138.17 157.541 138.345 158.409 137.826 158.548C132.368 159.993 126.601 159.187 121.675 156.292C121.205 156.016 121.659 155.271 122.125 155.546Z"
        fill="white"
      />
      <path
        d="M163.564 135.25C163.656 136.362 164.004 137.431 164.579 138.363C165.153 139.294 165.936 140.059 166.855 140.588C167.328 140.858 166.874 141.602 166.405 141.334C165.391 140.745 164.528 139.899 163.891 138.871C163.255 137.843 162.863 136.664 162.751 135.438C162.732 135.323 162.754 135.205 162.813 135.107C162.872 135.009 162.964 134.938 163.07 134.91C163.178 134.886 163.29 134.908 163.382 134.972C163.475 135.036 163.54 135.136 163.564 135.25Z"
        fill="white"
      />
      <path
        d="M126.833 157.402C122.855 136.865 117.882 130.018 117.882 130.018L115.983 128.445L113.698 126.55L113.709 126.307L113.168 126.11L113.04 126.005L112.832 125.834L112.798 125.872L112.727 125.95L102.39 122.199L89.2748 117.442L83.2018 109.014C82.2127 107.642 80.9393 106.532 79.4815 105.773C78.0236 105.014 76.4208 104.625 74.7988 104.638L55.4035 104.791C52.781 104.812 50.2606 105.879 48.3379 107.784L35.5896 120.409L15.7254 130.538L15.6919 130.503L15.4833 130.662L12.4141 132.229L12.5407 132.932L10.6411 134.396C10.6411 134.396 5.66851 140.767 1.69044 159.876C0.678466 164.738 0.180334 175.169 0.00053579 188.021C-0.00849548 188.671 0.103624 189.317 0.330371 189.921C0.557118 190.524 0.893972 191.073 1.32134 191.537C1.74872 192 2.25808 192.368 2.81982 192.619C3.38156 192.87 3.98447 193 4.59349 193H110.692V193H123.935C124.543 193 125.146 192.87 125.707 192.619C126.269 192.368 126.778 192.001 127.205 191.538C127.632 191.076 127.969 190.527 128.196 189.924C128.423 189.321 128.536 188.676 128.528 188.026C128.352 174.041 127.854 162.675 126.833 157.402Z"
        fill="#0B1744"
      />
      <path
        d="M140.446 17.9097C136.318 17.9097 132.359 19.6605 129.44 22.7769C126.522 25.8933 124.882 30.1201 124.882 34.5274C124.882 38.9348 126.522 43.1616 129.44 46.278C132.359 49.3944 136.318 51.1452 140.446 51.1452H256.436C260.564 51.1452 264.522 49.3944 267.441 46.278C270.36 43.1616 272 38.9348 272 34.5274C272 30.1201 270.36 25.8933 267.441 22.7769C264.522 19.6605 260.564 17.9097 256.436 17.9097H140.446Z"
        fill="#E5E5E5"
      />
      <path
        d="M140.446 21.2728C137.154 21.2728 133.996 22.6693 131.668 25.155C129.34 27.6407 128.032 31.0121 128.032 34.5275C128.032 38.0428 129.34 41.4142 131.668 43.8999C133.996 46.3856 137.154 47.7821 140.446 47.7821H256.436C259.728 47.7821 262.886 46.3856 265.214 43.8999C267.542 41.4142 268.85 38.0428 268.85 34.5275C268.85 31.0121 267.542 27.6407 265.214 25.155C262.886 22.6693 259.728 21.2728 256.436 21.2728H140.446Z"
        fill="white"
      />
      <path
        d="M68.147 96.8584C82.1804 96.8584 93.5568 84.7119 93.5568 69.7284C93.5568 54.745 82.1804 42.5985 68.147 42.5985C54.1135 42.5985 42.7372 54.745 42.7372 69.7284C42.7372 84.7119 54.1135 96.8584 68.147 96.8584Z"
        fill="#9E616A"
      />
      <path
        d="M61.6467 95.5299C61.5381 95.2748 61.4299 95.0187 61.3219 94.7617C61.3635 94.7632 61.4047 94.7696 61.4463 94.7707L61.6467 95.5299Z"
        fill="#040E24"
      />
      <path
        d="M42.0305 43.8322C43.3157 42.7376 44.8177 41.7305 46.4609 41.7871C48.1039 41.8436 49.7702 43.4281 49.4298 45.1453C52.4478 39.4398 57.2516 35.0517 62.998 32.751C68.7444 30.4504 75.0662 30.3844 80.8536 32.5645C84.9374 34.1028 88.9422 37.1804 89.8803 41.6943C90.1212 42.853 90.1729 44.1235 90.8505 45.0645C91.7048 46.2508 93.3395 46.5191 94.6855 46.1018C94.699 46.0976 94.7124 46.0934 94.7258 46.0891C94.9532 46.0062 95.1986 45.9981 95.4304 46.0657C95.6622 46.1334 95.8696 46.2737 96.0259 46.4686C96.1821 46.6635 96.28 46.904 96.3068 47.1589C96.3337 47.4139 96.2883 47.6716 96.1765 47.8986L95.021 50.1995C96.4776 50.5462 97.991 50.5118 99.4325 50.0994C99.672 50.0323 99.925 50.046 100.157 50.1386C100.389 50.2311 100.588 50.398 100.728 50.6163C100.867 50.8346 100.94 51.0937 100.936 51.358C100.932 51.6223 100.852 51.8788 100.706 52.0924C96.8962 57.6777 90.5307 61.2843 84.0348 61.2419C79.418 61.2119 74.7536 59.513 70.2604 60.6466C68.5222 61.0851 66.8979 61.9336 65.5068 63.1297C64.1158 64.3259 62.9932 65.8394 62.2214 67.5593C61.4497 69.2791 61.0483 71.1616 61.0468 73.0686C61.0453 74.9756 61.4438 76.8588 62.2129 78.58C60.8325 76.968 58.1642 77.3496 56.7522 78.9302C55.3403 80.5107 54.9747 82.8698 55.117 85.0487C55.3346 88.3813 56.5575 91.5215 57.8467 94.5778C47.0377 94.2145 36.8141 86.1188 33.3728 75.1692C29.9171 64.1738 33.5388 51.0649 42.0305 43.8322Z"
        fill="#040E24"
      />
      <path
        opacity="0.2"
        d="M25.0098 151.201L32.1367 192.602L36.413 193L25.0098 151.201Z"
        fill="#0B1744"
      />
      <path
        opacity="0.2"
        d="M103.514 148.079L96.3868 192.573L92.1105 193L103.514 148.079Z"
        fill="#040E24"
      />
      <path
        d="M166.067 42.453H142.989C142.916 42.4535 142.843 42.4386 142.775 42.409C142.707 42.3794 142.645 42.3358 142.593 42.2806C142.541 42.2254 142.5 42.1598 142.472 42.0876C142.444 42.0153 142.429 41.9378 142.429 41.8595C142.429 41.7812 142.444 41.7037 142.472 41.6314C142.5 41.5592 142.541 41.4936 142.593 41.4384C142.645 41.3832 142.707 41.3396 142.775 41.31C142.843 41.2804 142.916 41.2655 142.989 41.266H166.067C166.213 41.2671 166.354 41.3301 166.457 41.4412C166.561 41.5524 166.619 41.7028 166.619 41.8595C166.619 42.0162 166.561 42.1665 166.457 42.2777C166.354 42.3889 166.213 42.4519 166.067 42.453Z"
        id="trackbeeIndicator"
        fill="#A7A7A7"
      />
      <path
        d="M195.342 42.6508H172.264C172.191 42.6513 172.118 42.6364 172.05 42.6068C171.983 42.5772 171.921 42.5336 171.869 42.4784C171.817 42.4232 171.776 42.3576 171.747 42.2854C171.719 42.2131 171.705 42.1356 171.705 42.0573C171.705 41.979 171.719 41.9015 171.747 41.8293C171.776 41.757 171.817 41.6914 171.869 41.6362C171.921 41.581 171.983 41.5374 172.05 41.5078C172.118 41.4782 172.191 41.4633 172.264 41.4638H195.342C195.415 41.4633 195.488 41.4782 195.556 41.5078C195.624 41.5374 195.686 41.581 195.738 41.6362C195.79 41.6914 195.831 41.757 195.859 41.8293C195.887 41.9015 195.902 41.979 195.902 42.0573C195.902 42.1356 195.887 42.2131 195.859 42.2854C195.831 42.3576 195.79 42.4232 195.738 42.4784C195.686 42.5336 195.624 42.5772 195.556 42.6068C195.488 42.6364 195.415 42.6513 195.342 42.6508Z"
        id="trackbeeIndicator"
        fill="#A7A7A7"
      />
      <path
        d="M224.617 42.8486H201.54C201.393 42.8476 201.253 42.7846 201.149 42.6734C201.046 42.5622 200.988 42.4119 200.988 42.2552C200.988 42.0984 201.046 41.9481 201.149 41.8369C201.253 41.7257 201.393 41.6627 201.54 41.6617H224.617C224.691 41.6611 224.763 41.6761 224.831 41.7057C224.899 41.7353 224.961 41.7789 225.013 41.8341C225.065 41.8892 225.106 41.9548 225.134 42.0271C225.163 42.0994 225.177 42.1769 225.177 42.2552C225.177 42.3334 225.163 42.4109 225.134 42.4832C225.106 42.5555 225.065 42.6211 225.013 42.6763C224.961 42.7314 224.899 42.775 224.831 42.8046C224.763 42.8342 224.691 42.8492 224.617 42.8486H224.617Z"
        id="trackbeeIndicator"
        fill="#A7A7A7"
      />
      <path
        d="M253.893 43.0465H230.815C230.668 43.0454 230.528 42.9824 230.425 42.8712C230.321 42.76 230.263 42.6097 230.263 42.453C230.263 42.2963 230.321 42.1459 230.425 42.0347C230.528 41.9236 230.668 41.8606 230.815 41.8595H253.893C254.04 41.8606 254.18 41.9236 254.283 42.0347C254.387 42.1459 254.445 42.2963 254.445 42.453C254.445 42.6097 254.387 42.76 254.283 42.8712C254.18 42.9824 254.04 43.0454 253.893 43.0465Z"
        id="trackbeeIndicator"
        fill="#A7A7A7"
      />
      <path
        d="M154.477 36.991C156.846 36.991 158.766 34.9407 158.766 32.4115C158.766 29.8823 156.846 27.832 154.477 27.832C152.108 27.832 150.188 29.8823 150.188 32.4115C150.188 34.9407 152.108 36.991 154.477 36.991Z"
        id="trackbeeIndicator"
        fill="#A7A7A7"
      />
      <path
        d="M183.929 36.991C186.298 36.991 188.218 34.9407 188.218 32.4115C188.218 29.8823 186.298 27.832 183.929 27.832C181.56 27.832 179.64 29.8823 179.64 32.4115C179.64 34.9407 181.56 36.991 183.929 36.991Z"
        id="trackbeeIndicator"
        fill="#A7A7A7"
      />
      <path
        d="M213.382 36.991C215.75 36.991 217.671 34.9407 217.671 32.4115C217.671 29.8823 215.75 27.832 213.382 27.832C211.013 27.832 209.092 29.8823 209.092 32.4115C209.092 34.9407 211.013 36.991 213.382 36.991Z"
        id="trackbeeIndicator"
        fill="#A7A7A7"
      />
      <path
        d="M242.834 36.991C245.203 36.991 247.123 34.9407 247.123 32.4115C247.123 29.8823 245.203 27.832 242.834 27.832C240.465 27.832 238.545 29.8823 238.545 32.4115C238.545 34.9407 240.465 36.991 242.834 36.991Z"
        id="trackbeeIndicator"
        fill=#A7A7A7
      />
    </svg>