<svg width="1414" height="280" viewBox="0 0 1414 280" fill="none" xmlns="http://www.w3.org/2000/svg">
<path d="M704.792 29.4709L688.221 59.0565L655.191 59.4005L622.161 59.7445L605.591 89.4447L589.021 119.26L556.543 119.489L524.175 119.833L507.605 149.304L491.035 178.889L470.377 178.775C459.109 178.66 444.969 178.316 439.004 177.857L428.178 177.169L412.381 148.501L396.584 119.833L363.554 119.489L330.524 119.145L314.174 89.33L297.714 59.6298H263.911H229.997L213.427 89.4447L196.857 119.145L163.826 119.489L130.686 119.833L113.784 149.992L96.8823 180.151L113.784 210.768L130.686 241.386L163.716 241.73L196.857 242.074L210.113 266.27C217.404 279.572 224.584 292.759 226.02 295.397L228.672 300.328L213.427 327.62C205.031 342.642 197.519 355.715 196.636 356.632C195.31 358.123 190.56 358.237 163.937 357.893L132.785 357.549L116.104 387.25L99.5336 416.835L66.5034 417.409L33.4733 417.982L16.5715 447.797C7.29216 464.195 -0.109248 478.185 0.00122065 478.873C0.111689 479.561 7.62356 493.666 16.7925 510.179L33.3628 540.108H66.172H98.8708L114.447 568.318C123.063 583.913 130.023 596.986 130.023 597.445C130.023 598.018 122.953 610.976 114.447 626.228C105.83 641.479 98.5393 654.781 98.3184 655.813C98.0975 656.845 105.278 671.065 114.336 687.463L130.907 717.278L163.826 717.851L196.857 718.424L212.985 747.551L229.113 776.793L219.724 793.42C214.642 802.594 207.241 815.896 203.264 823.006L196.083 835.735L212.985 866.237L229.887 896.74H262.696H295.395L311.854 926.555L328.204 956.37H362.56H396.805L412.271 928.619C420.777 913.368 428.509 899.951 429.393 898.69C431.05 896.626 432.376 896.626 461.982 897.543L492.802 898.461L508.82 927.473L524.728 956.37H557.537H590.346L606.806 986.185L623.155 1016H657.069H690.983L707.774 986.185L724.566 956.37H757.264H790.074L806.644 926.555L823.214 896.855L854.256 896.74H885.298L901.758 926.555L918.107 956.37H950.916H983.836L1000.19 986.185L1016.53 1016L1050.67 1015.77L1084.91 1015.43L1101.48 985.841L1118.06 956.37H1150.86H1183.56L1200.24 926.555C1209.52 910.157 1217.04 896.052 1216.92 895.364C1216.92 894.562 1209.52 880.686 1200.58 864.632L1184.34 835.391L1171.63 834.702C1164.67 834.244 1149.76 833.9 1138.49 833.785L1117.94 833.67L1101.71 804.2C1089.78 782.641 1085.69 774.27 1086.35 772.779C1086.79 771.747 1093.97 759.019 1102.15 744.34L1117.06 717.851H1149.87H1182.57L1199.36 688.036L1216.15 658.221L1248.74 657.992L1281.44 657.648L1298.01 627.948L1314.69 598.247L1347.17 598.706L1379.76 599.165L1396.22 569.923C1405.27 553.869 1413.01 540.108 1413.23 539.42C1413.56 538.618 1406.27 524.284 1396.99 507.541L1380.2 477.038H1347.5H1314.8L1298.23 447.224L1281.66 417.409H1247.41L1213.17 417.523L1196.6 447.224L1180.03 477.038H1161.69C1151.64 477.038 1137.39 476.694 1129.99 476.236L1116.62 475.548L1100.27 445.962L1083.92 416.262H1051.11H1018.41L1002.73 387.938L987.15 359.499L989.138 355.944C990.243 353.995 997.313 341.266 1004.94 327.62L1018.74 302.851L1052.99 302.736H1087.23L1104.14 272.348L1121.04 242.074L1104.36 211.8L1087.57 181.412L1053.76 180.609C1023.05 179.807 1019.85 179.921 1018.63 181.642C1017.97 182.674 1010.46 195.976 1002.06 210.998L986.708 238.519L953.678 238.29L920.648 237.946L904.851 209.278C896.124 193.453 888.943 180.38 888.943 180.036C888.943 179.692 896.345 166.275 905.293 150.221L921.752 121.094L904.961 90.7061L888.17 60.2032L855.14 59.8592L822.11 59.6298L805.76 29.8149L789.411 0H755.387H721.362L704.792 29.4709ZM802.667 31.6497C811.173 47.1305 818.243 60.4326 818.243 61.0059C818.243 62.1526 789.853 113.411 786.981 117.31C785.765 119.03 782.783 119.145 754.282 118.342L722.798 117.54L707.112 89.2154L691.536 60.8912L707.554 32.1084L723.572 3.44019H755.276H786.981L802.667 31.6497ZM284.679 64.2167H296.278L308.651 86.9219C315.5 99.3066 322.57 112.15 324.337 115.246L327.541 120.98L311.302 149.648L295.174 178.316L264.132 178.66C235.631 178.889 232.98 178.775 231.433 176.94C228.119 172.926 200.612 121.553 200.944 119.948C201.165 119.145 208.235 105.958 216.741 90.5914L232.207 62.8406L252.643 63.5287C263.911 63.8727 278.272 64.2167 284.679 64.2167ZM704.129 92.0822L719.926 120.636L704.019 148.845L688.221 177.169H656.517H624.812L608.794 148.386L592.887 119.718L608.684 91.3942L624.371 63.1847L656.407 63.414L688.442 63.6434L704.129 92.0822ZM901.205 91.3942C909.822 107.104 916.892 120.292 916.892 120.98C916.892 121.553 909.711 134.855 900.984 150.451L885.187 178.775L853.593 178.087C826.639 177.513 821.889 177.169 820.674 175.679C819.9 174.647 812.83 162.033 804.877 147.584C791.952 124.305 790.516 121.094 791.51 118.686C792.946 115.361 820.342 66.5102 821.889 64.446C822.662 63.414 830.505 63.07 854.146 63.07H885.408L901.205 91.3942ZM212.543 151.368C221.16 166.849 228.009 180.151 227.677 181.068C227.346 181.986 220.386 195.058 211.991 209.966L196.857 237.258L164.821 237.372H132.785L116.877 208.704L101.08 180.036L109.586 164.899C114.336 156.528 121.627 143.57 125.825 136.117L133.447 122.7L165.152 122.929L196.857 123.273L212.543 151.368ZM409.84 151.368C423.207 175.679 424.974 179.463 423.98 181.642C423.207 183.018 415.806 196.205 407.52 210.998L392.276 237.946L361.676 238.175L331.076 238.405L328.425 234.162C324.558 227.969 299.04 181.412 299.04 180.495C299.04 179.921 305.447 168.34 325.332 133.135L331.407 122.356L362.891 122.929L394.485 123.503L409.84 151.368ZM605.812 152.056L621.719 180.839L605.922 209.048L590.125 237.372L558.089 237.028L526.164 236.799L510.367 208.246L494.68 179.577L496.669 176.137C498.657 172.812 511.03 150.795 522.077 130.956L526.716 122.7L558.31 122.929L589.904 123.273L605.812 152.056ZM802.225 150.909C810.731 166.39 817.691 179.692 817.691 180.609C817.691 181.412 810.731 194.6 802.225 209.736L786.76 237.372H755.055H723.461L707.774 209.048C698.606 192.421 692.419 179.807 692.64 178.66C692.972 177.628 700.042 164.555 708.327 149.648L723.461 122.7H755.166H786.76L802.225 150.909ZM310.087 209.392C318.262 224.3 325.442 237.487 325.994 238.634C326.768 240.239 323.454 247.005 311.192 268.907L295.395 297.002H263.248H230.991L215.747 269.137C207.241 253.885 200.392 240.813 200.392 240.239C200.392 239.551 207.462 226.249 216.299 210.654L232.207 182.33H263.69H295.174L310.087 209.392ZM507.495 210.998L523.181 239.551L507.163 268.334L491.035 297.002H459.883H428.841L413.044 268.334L397.247 239.781L407.41 221.662C412.933 211.686 420.224 198.728 423.538 192.879L429.504 182.33H460.656L491.808 182.444L507.495 210.998ZM704.24 211.686L720.036 240.583L704.24 268.793L688.442 297.002L656.517 296.658L624.592 296.429L609.236 268.563C600.841 253.197 593.992 240.01 594.213 239.093C594.434 238.29 601.504 225.217 610.01 209.966L625.475 182.33L656.959 182.559L688.332 182.903L704.24 211.686ZM876.46 183.362L886.734 184.05L902.199 212.03L917.665 239.895L901.426 269.022L885.077 298.149L861.326 298.034C848.291 297.92 833.93 297.576 829.622 297.117L821.557 296.429L805.981 268.334C792.615 244.138 790.626 240.01 791.62 237.716C792.946 234.62 820.342 185.77 821.889 183.706C822.993 182.215 857.018 181.871 876.46 183.362ZM1101.04 213.406L1116.84 242.074L1114.74 245.858C1113.64 247.922 1106.46 260.766 1098.83 274.412L1085.03 299.181L1052.99 299.296H1020.84L1005.05 270.513C992.894 248.496 989.47 241.271 990.133 239.781C990.685 238.634 997.865 225.791 1006.04 211.112L1020.95 184.623H1053.1H1085.36L1101.04 213.406ZM365.874 243.106H393.822L409.398 271.545C417.904 287.14 424.974 300.442 424.974 300.901C424.974 301.474 417.904 314.547 409.398 329.913L393.822 357.779L362.228 357.549L330.634 357.205L314.727 328.308L298.819 299.41L308.982 281.292C333.727 237.487 330.966 241.615 334.611 242.418C336.489 242.762 350.519 243.106 365.874 243.106ZM605.922 270.742L621.719 299.525L614.981 311.795C611.225 318.446 604.044 331.289 599.073 340.234L590.125 356.517L558.642 356.632H527.158L511.472 327.964C502.745 312.254 495.674 298.722 495.674 298.034C495.674 297.461 499.21 290.695 503.407 283.127C507.716 275.673 514.675 263.289 518.873 255.72L526.716 241.959H558.421H590.125L605.922 270.742ZM802.778 270.628C815.04 292.989 818.354 299.869 817.58 301.474C817.028 302.621 809.848 315.465 801.673 330.143L786.76 356.632H755.276H723.682L707.885 327.964C699.268 312.139 692.309 298.837 692.53 298.264C692.751 297.69 699.821 284.847 708.327 269.596L723.792 241.959H755.387H787.091L802.778 270.628ZM999.081 268.907C1007.14 283.356 1014.21 296.429 1014.99 297.69C1016.09 299.869 1014.33 303.539 1000.41 328.423L984.499 356.632H952.352H920.095L904.519 328.193L888.943 299.64L905.072 270.857L921.311 241.959L952.905 242.189L984.499 242.533L999.081 268.907ZM311.192 330.257C320.913 348.032 326.657 359.614 326.215 360.76C325.221 363.398 296.72 414.312 295.284 415.918C294.29 417.065 286.778 417.179 263.138 416.606L232.207 415.918L218.95 391.837C211.659 378.535 204.479 365.577 203.043 362.824L200.502 358.008L216.299 329.799L232.207 301.589H263.801H295.505L311.192 330.257ZM480.319 302.736H492.139L507.716 330.945C516.332 346.426 523.071 359.499 522.96 359.843C522.739 360.302 515.448 373.374 506.721 389.084L490.924 417.409L459.993 417.179L429.172 416.835L413.265 388.282C404.648 372.457 397.689 359.384 397.799 359.04C402.549 350.325 427.073 306.979 428.62 304.571L430.94 301.245L449.719 301.933C460.104 302.392 473.912 302.736 480.319 302.736ZM704.35 330.372C719.042 356.976 720.036 359.384 718.932 362.136C718.159 363.742 711.089 376.585 703.245 390.69L688.774 416.262H656.959H625.144L609.457 387.594C600.841 371.884 593.992 358.581 594.213 358.008C594.323 357.435 601.504 344.477 610.01 329.34L625.475 301.589H656.959H688.442L704.35 330.372ZM899.99 328.193C908.165 342.871 915.235 355.715 915.787 356.747C916.56 358.008 912.805 365.577 900.763 387.135L884.745 415.688L853.483 416.033L822.11 416.262L806.644 388.052C798.138 372.572 791.178 359.27 791.178 358.581C791.178 357.779 798.138 344.706 806.644 329.455L822.11 301.704L853.704 301.589H885.298L899.99 328.193ZM407.852 386.676C415.585 400.781 422.765 413.854 423.98 415.688L425.969 419.129L410.172 447.224L394.485 475.318H362.56H330.634L314.837 446.765L299.04 418.211L314.064 391.149C322.459 376.241 329.75 363.398 330.303 362.595C331.076 361.563 338.919 361.219 362.56 361.219H393.822L407.852 386.676ZM606.143 389.887L621.94 418.555L614.981 430.94C611.225 437.706 604.044 450.549 599.073 459.493L590.125 475.777H558.642H527.158L511.803 447.797C503.407 432.431 496.448 419.473 496.337 419.129C496.337 418.785 503.407 405.597 512.245 389.772L528.263 361.219H559.305H590.457L606.143 389.887ZM802.004 388.74C810.289 403.877 817.249 416.606 817.359 417.179C817.58 417.753 810.51 431.169 801.673 446.994L785.655 475.777L754.724 475.892H723.792L707.885 447.338L692.088 418.67L702.362 400.552C707.885 390.575 715.176 377.617 718.49 371.769L724.455 361.219H755.607H786.87L802.004 388.74ZM999.412 389.428C1008.03 404.909 1014.77 418.211 1014.55 418.899C1014.21 419.702 1007.03 432.66 998.528 447.797L983.063 475.318H951.358H919.654L904.298 447.797C895.792 432.66 889.054 419.473 889.164 418.441C889.385 417.409 896.455 404.107 904.961 388.97L920.427 361.219H952.021H983.725L999.412 389.428ZM209.892 384.727C216.52 396.653 223.59 409.611 225.578 413.395L229.334 420.275L213.537 448.37L197.851 476.465L166.257 476.809L134.663 477.038L121.075 452.728C113.674 439.311 106.493 426.238 105.057 423.716L102.516 419.129L115.993 395.047C123.395 381.745 130.575 369.017 131.901 366.609L134.442 362.366L166.146 362.595L197.851 362.939L209.892 384.727ZM885.187 421.193C886.734 423.257 915.787 476.809 915.787 477.612C915.787 478.988 885.961 531.967 883.972 534.26C882.757 535.521 877.123 535.636 852.047 534.948L821.668 534.031L806.092 506.051L790.626 478.07L804.545 453.186C812.167 439.54 819.679 426.353 821.226 423.83L823.988 419.358L854.587 420.275C871.379 420.734 885.187 421.193 885.187 421.193ZM1082.48 421.881C1084.47 423.83 1113.31 477.382 1112.97 478.644C1112.75 479.447 1105.68 492.519 1097.18 507.771L1081.71 535.521L1049.79 535.177L1017.86 534.948L1002.06 506.28L986.266 477.612L988.365 474.172C989.47 472.337 996.429 459.837 1003.83 446.65C1011.23 433.348 1017.75 421.995 1018.3 421.307C1019.3 420.046 1081.05 420.505 1082.48 421.881ZM88.2657 421.537L99.865 422.34L115.11 449.976C123.505 465.227 130.354 478.07 130.354 478.758C130.354 479.332 123.174 492.749 114.447 508.344L98.5393 536.783L67.2767 536.553L36.014 536.439L33.3628 532.196C32.0372 529.902 24.7462 517.059 17.3448 503.528C5.52466 482.084 3.9781 478.644 5.08278 476.35C6.40841 473.14 33.8047 424.289 35.3512 422.225C36.5664 420.734 67.6081 420.275 88.2657 421.537ZM493.907 425.092C495.454 427.5 502.855 440.687 510.367 454.448L524.065 479.447L508.047 508L491.919 536.668H482.529C477.337 536.668 462.976 536.324 450.824 535.865L428.509 535.177L412.933 506.739L397.247 478.185L407.41 460.182C412.933 450.205 420.224 437.247 423.538 431.399L429.504 420.849H460.324H491.256L493.907 425.092ZM704.35 449.058C712.967 464.654 719.926 477.841 719.926 478.414C719.926 478.988 712.856 492.175 704.24 507.541L688.553 535.521L656.959 535.292L625.475 534.948L610.893 508.573C602.829 494.01 595.759 481.052 594.986 479.791C593.881 477.612 595.649 473.942 609.568 449.058L625.475 420.849H657.18H688.774L704.35 449.058ZM1295.36 449.517L1311.04 478.185L1295.14 506.624L1279.23 534.948L1247.3 535.177L1215.38 535.521L1199.58 506.853C1185.55 481.167 1184.01 477.841 1185.11 475.548C1187.65 470.731 1214.05 423.716 1215.16 422.225C1215.93 421.193 1223.88 420.849 1247.86 420.849H1279.56L1295.36 449.517ZM311.523 449.861C319.808 465.112 326.657 478.185 326.657 478.758C326.657 479.447 319.477 492.519 310.75 508L294.953 536.095L263.911 536.439L232.98 536.668L217.404 508.459C208.787 492.978 201.828 479.676 201.828 478.988C201.828 478.3 208.898 465.227 217.404 449.861L233.09 421.995H264.684L296.278 422.11L311.523 449.861ZM998.97 508.688L1014.99 537.586L998.639 566.483L982.4 595.495L975.219 594.693C971.242 594.349 957.102 594.005 943.957 594.005H920.095L904.298 565.566C895.682 549.97 888.612 536.668 888.612 536.095C888.612 535.407 893.583 526.118 899.659 515.454C905.624 504.674 912.694 492.175 915.345 487.588L919.985 479.332L951.469 479.561L982.952 479.905L998.97 508.688ZM184.263 481.281L198.182 481.969L213.427 509.491C221.822 524.628 228.672 537.586 228.672 538.274C228.672 539.764 198.955 592.743 197.077 594.807C196.083 595.839 188.019 595.954 164.6 595.495L133.337 594.807L117.871 566.827C109.255 551.346 102.406 538.388 102.627 537.93C102.848 537.471 110.139 524.398 118.866 508.803L134.773 480.479H152.559C162.39 480.479 176.641 480.823 184.263 481.281ZM409.177 508C417.463 522.793 424.422 535.865 424.643 536.898C424.974 538.044 418.788 550.314 409.398 567.056L393.601 595.151H362.007L330.524 595.037L315.169 567.056C305.558 549.397 300.145 538.274 300.587 537.127C301.139 535.521 326.878 489.194 330.634 483.001L332.291 480.479L363.222 480.708L394.154 481.052L409.177 508ZM606.033 509.147L621.83 537.93L605.37 567.171L589.021 596.527L580.846 595.839C576.317 595.495 562.398 595.151 549.915 595.151H527.158L511.692 566.942C503.186 551.346 496.337 538.159 496.558 537.471C496.779 536.898 503.96 523.71 512.576 508.459L528.263 480.479H559.194H590.236L606.033 509.147ZM800.347 505.707C807.859 519.238 815.04 532.311 816.255 534.604L818.575 538.732L802.778 566.942L787.091 595.151H755.387H723.682L707.885 566.483C699.268 550.658 692.309 537.356 692.53 536.783C692.751 536.21 699.821 523.366 708.327 508.115L723.792 480.479L755.166 480.708L786.649 481.052L800.347 505.707ZM1196.16 508.573C1204.55 523.71 1211.51 536.783 1211.51 537.586C1211.51 538.388 1204.44 551.576 1195.83 567.056L1180.03 595.151H1148.54H1117.06L1102.15 568.089C1093.97 553.181 1086.79 539.994 1086.24 538.847C1085.47 537.242 1088.78 530.476 1101.04 508.573L1116.84 480.479L1148.88 480.708L1180.8 481.052L1196.16 508.573ZM1393.56 508.803C1402.18 524.513 1409.25 537.7 1409.25 538.159C1409.25 538.732 1402.18 551.69 1393.56 567.171L1377.77 595.151H1345.73L1313.7 595.037L1298.01 566.483L1282.43 537.815L1298.45 509.147L1314.58 480.479H1346.28H1377.88L1393.56 508.803ZM704.35 568.203C712.967 583.569 719.926 596.642 719.926 597.101C719.926 597.559 712.746 610.632 704.129 626.113L688.332 654.208L657.29 654.552L626.249 654.781L610.672 626.686C602.056 611.32 595.096 598.133 595.096 597.445C595.096 596.183 602.166 583.225 619.399 552.722L626.911 539.535L657.843 539.879L688.884 540.223L704.35 568.203ZM311.413 569.235L327.431 598.247L311.634 626.228L295.947 654.208L264.132 654.437L232.207 654.781L216.52 626.228L200.723 597.674L216.962 568.891L233.09 540.108H264.242H295.395L311.413 569.235ZM504.954 563.043C511.803 575.313 518.873 588.271 520.751 591.711L524.286 598.018L508.489 626.113L492.802 654.208H460.877H428.951L413.154 625.654C399.456 600.77 397.578 596.871 398.683 594.693C401.113 589.876 427.515 542.975 428.62 541.484C429.393 540.452 436.795 540.108 461.208 540.338L492.692 540.682L504.954 563.043ZM900.763 568.777L916.45 597.445L900.322 626.113L884.304 654.781H853.151H822.11L806.313 625.998L790.516 597.215L799.022 582.193C803.661 573.822 810.952 560.979 815.15 553.525L822.772 540.108H853.925L885.077 540.223L900.763 568.777ZM1097.73 568.433C1106.24 584.028 1113.08 597.33 1112.97 598.018C1112.75 598.821 1105.68 611.893 1097.18 627.03L1081.71 654.781H1050.12H1018.52L1002.51 625.769L986.598 596.757L999.081 574.396C1006.04 562.126 1013.11 549.397 1014.88 546.071L1018.19 540.108H1050.12H1082.04L1097.73 568.433ZM1295.14 569.235L1310.82 597.789L1295.03 625.998L1279.12 654.208L1247.3 654.437L1215.38 654.781L1199.91 626.572C1191.41 611.091 1184.45 597.903 1184.45 597.101C1184.45 596.298 1191.41 583.225 1199.91 567.974L1215.38 540.108L1247.3 540.452L1279.34 540.682L1295.14 569.235ZM787.533 600.77C788.969 602.146 818.243 655.928 818.243 657.189C818.243 657.877 811.173 671.065 802.557 686.431L786.87 714.411H755.718H724.566L708.327 685.055L692.198 655.813L707.333 628.636C715.728 613.728 722.909 600.885 723.351 600.197C724.345 598.935 786.097 599.394 787.533 600.77ZM997.976 625.54C1006.04 639.988 1013.11 652.946 1013.77 654.208C1014.77 656.272 1012.67 660.629 998.749 685.628L982.51 714.64L951.579 714.181L920.758 713.837L904.961 685.169C890.932 659.941 889.275 656.386 890.379 654.208C891.153 652.832 898.443 639.759 906.618 625.081L921.531 598.362L952.463 598.821L983.394 599.165L997.976 625.54ZM213.095 628.177C221.491 643.543 228.34 656.73 228.119 657.533C227.898 658.336 220.828 671.523 212.322 686.66L196.857 714.411L164.931 714.067L133.006 713.837L117.209 685.169C103.069 659.597 101.522 656.272 102.848 654.208C103.621 652.946 110.801 640.218 118.866 625.769L133.558 599.738L165.594 599.967L197.74 600.312L213.095 628.177ZM407.852 625.195C415.585 639.3 422.765 652.373 423.87 654.208L425.969 657.648L410.172 685.743L394.375 713.837L362.449 714.067L330.524 714.411L314.837 685.743L299.04 657.189L315.169 628.521L331.297 599.738H362.56H393.822L407.852 625.195ZM582.392 600.426L591.23 601.229L607.027 629.897L622.714 658.565L606.917 686.775L591.12 714.984L569.026 715.328C556.985 715.443 542.624 715.214 537.1 714.755L527.269 713.837L511.582 685.513L496.006 657.189L512.134 628.521L528.152 599.738H550.909C563.392 599.738 577.532 600.082 582.392 600.426ZM1193.95 624.049C1201.35 637.465 1208.53 650.538 1209.85 653.061L1212.4 657.648L1196.38 685.972L1180.47 714.411H1148.66H1116.95L1101.15 685.743C1092.54 669.918 1085.58 656.616 1085.8 656.042C1086.02 655.469 1093.09 642.626 1101.6 627.374L1117.06 599.738H1148.77H1180.36L1193.95 624.049ZM1097.51 687.463C1111.21 712.117 1113.19 716.36 1112.2 718.654C1110.32 723.011 1083.15 771.059 1081.71 772.779C1080.61 774.041 1074.75 774.155 1049.45 773.467L1018.63 772.55L1003.72 745.602C995.656 730.809 988.476 717.851 988.034 716.704C987.26 715.214 991.016 707.76 1002.95 686.431L1018.74 658.221L1050.23 658.565L1081.71 658.795L1097.51 687.463ZM311.965 688.609C326.215 714.411 327.541 717.392 326.215 719.571C325.442 720.833 318.262 733.561 310.197 747.895L295.505 774.041H263.69H231.875L216.299 745.831C207.682 730.236 200.723 717.163 200.723 716.59C200.723 716.016 207.793 702.829 216.52 687.463L232.207 659.368L264.132 659.712L296.168 659.941L311.965 688.609ZM508.71 688.151L524.507 716.934L508.599 745.143L492.692 773.467L461.208 773.811L429.614 774.041L413.928 745.716C404.759 729.089 398.572 716.475 398.793 715.328C399.125 714.296 406.195 701.223 414.48 686.316L429.614 659.368H461.319L492.913 659.483L508.71 688.151ZM704.35 687.577C712.967 703.173 719.926 716.36 719.926 717.163C719.926 717.851 712.856 730.924 704.129 746.29L688.442 774.155L657.511 774.041C640.499 774.041 626.249 773.582 625.807 773.123C625.475 772.665 618.295 760.051 610.01 745.028C600.951 728.63 595.207 717.048 595.538 715.902C596.201 714.411 621.94 667.968 625.586 661.891C627.132 659.368 627.243 659.368 657.953 659.368H688.774L704.35 687.577ZM901.316 688.609L917.444 717.851L901.758 745.716L886.071 773.467H854.146H822.22L806.423 744.914C797.807 729.204 790.847 716.016 791.068 715.672C791.62 714.64 806.423 688.265 814.929 673.129L822.772 659.368H853.925H885.187L901.316 688.609ZM410.393 748.354L426.19 777.251L410.393 805.461L394.596 833.67L362.67 833.326L330.745 833.097L314.948 804.658L299.261 776.105L302.244 770.83C303.901 767.848 311.081 755.005 318.262 742.162L331.297 718.998L362.891 719.227L394.485 719.571L410.393 748.354ZM607.027 747.666L622.714 776.449L606.806 804.773L590.899 833.097L559.525 833.441L528.042 833.67L512.687 805.92C504.291 790.668 497.221 777.481 497 776.678C496.779 775.761 503.628 762.459 512.355 747.093L528.042 718.998H559.636H591.23L607.027 747.666ZM803.33 747.322C811.836 762.917 818.685 776.105 818.464 776.793C818.243 777.481 811.063 790.553 802.446 805.805L786.87 833.67H755.718H724.566L708.879 805.346C700.373 789.751 693.635 776.334 693.966 775.417C694.518 773.926 720.478 727.254 723.903 721.521C725.449 718.998 725.56 718.998 756.712 718.998L787.864 719.112L803.33 747.322ZM999.743 748.239L1015.76 777.366L1000.07 805.232L984.499 833.097H952.573H920.758L905.403 805.576C897.007 790.439 890.158 777.366 890.048 776.563C890.048 775.646 897.118 762.344 905.734 746.978L921.421 718.998H952.573H983.615L999.743 748.239ZM311.965 807.296L327.762 835.964L311.634 864.632L295.505 893.3H263.801H232.096L216.299 864.517C204.147 842.5 200.723 835.276 201.386 833.785C201.938 832.638 209.119 819.795 217.293 805.117L232.207 778.628H264.242H296.278L311.965 807.296ZM508.489 807.41L524.065 835.505L507.937 864.403L491.808 893.3L460.435 892.956L429.062 892.727L413.707 864.861C405.311 849.495 398.462 836.308 398.683 835.505C398.904 834.702 405.974 821.63 414.48 806.378L429.946 778.628L461.429 778.972L492.913 779.201L508.489 807.41ZM705.234 807.754L720.92 836.308L718.269 841.009C716.833 843.647 709.652 856.261 702.472 869.219L689.216 892.727H657.401H625.586L609.899 864.288L594.213 835.849L610.341 807.181L626.359 778.628L657.953 778.857L689.437 779.201L705.234 807.754ZM901.647 806.837C910.153 822.433 917.002 835.62 916.781 836.308C916.56 836.881 909.38 849.954 900.874 865.32L885.187 893.3H854.035H822.883L808.191 866.581C800.126 852.018 792.835 838.945 792.062 837.684C790.847 835.505 792.062 832.753 805.097 809.589C813.051 795.37 820.232 782.641 821.115 781.15C822.662 778.628 822.772 778.628 854.477 778.628H886.182L901.647 806.837ZM1098.94 806.722C1107.34 821.859 1114.19 834.817 1114.19 835.391C1114.3 836.079 1107.23 849.266 1098.5 864.632L1082.82 892.727H1050.89H1018.96L1003.72 865.205C995.325 850.069 988.476 836.996 988.476 836.193C988.365 835.391 995.435 822.088 1004.05 806.608L1019.74 778.628L1051.66 778.857L1083.7 779.201L1098.94 806.722ZM999.854 866.123C1008.36 881.374 1015.21 894.447 1015.21 895.02C1015.21 895.708 1008.14 909.01 999.412 924.606L983.504 952.93H952.021H920.427L904.63 924.262C890.49 898.461 888.943 895.364 890.158 893.071C893.583 886.305 919.212 840.895 920.537 839.404C921.752 837.913 926.503 837.684 953.236 838.028L984.499 838.372L999.854 866.123ZM410.503 867.04L426.411 895.823L424.312 899.607C423.207 901.557 416.027 914.4 408.404 928.046L394.596 952.815H362.56L330.524 952.93L314.727 924.262L298.93 895.708L309.093 877.59C314.616 867.614 321.907 854.656 325.221 848.807L331.187 838.257H362.891H394.596L410.503 867.04ZM606.696 866.467C615.202 881.948 622.161 894.906 622.051 895.25C622.051 895.594 614.87 908.666 606.033 924.377L590.125 952.93L559.084 952.815C531.245 952.815 527.821 952.586 526.385 950.866C524.728 948.802 497 898.805 496.558 896.855C496.337 896.282 503.407 882.865 512.245 867.04L528.263 838.257H559.746H591.23L606.696 866.467ZM803.33 866.696C811.836 882.177 818.796 895.479 818.796 896.282C818.796 896.97 811.836 910.042 803.33 925.294L787.864 952.93L755.939 952.701L724.013 952.357L708.327 923.803L692.53 895.25L699.379 883.094C703.135 876.443 710.426 863.6 715.397 854.541L724.566 838.257L756.16 838.372H787.864L803.33 866.696ZM1197.81 867.27L1213.39 895.708L1197.37 924.262L1181.35 952.93H1149.54H1117.83L1102.26 924.721C1093.64 909.125 1086.68 895.938 1086.68 895.364C1086.68 894.791 1093.75 881.604 1102.37 866.237L1118.06 838.257L1150.09 838.487L1182.13 838.831L1197.81 867.27ZM675.739 897.428L689.658 898.231L705.344 926.555L721.031 954.994L704.902 983.777L688.774 1012.56L669.884 1012.45C659.389 1012.33 644.918 1011.99 637.737 1011.53L624.481 1010.84L609.236 983.318C600.951 968.181 593.992 955.453 593.992 954.879C593.992 954.421 601.283 941.119 610.12 925.409L626.249 896.74H644.034C653.866 896.74 668.116 897.084 675.739 897.428ZM1065.14 897.887H1082.93L1098.72 926.555L1114.52 955.223L1098.5 983.662L1082.59 1011.99L1051 1012.33L1019.3 1012.56L1016.76 1008.32C1009.8 996.964 987.26 954.994 987.592 954.306C987.813 953.847 995.214 940.66 1003.94 924.95L1019.85 896.396L1033.66 897.199C1041.28 897.543 1055.42 897.887 1065.14 897.887Z" fill="url(#paint0_linear_543_19437)"/>
<defs>
<linearGradient id="paint0_linear_543_19437" x1="706.619" y1="649" x2="706.619" y2="0" gradientUnits="userSpaceOnUse">
<stop stop-color="#DADADA"/>
<stop offset="1" stop-color="#F9F9F9"/>
</linearGradient>
</defs>
</svg>
