<svg width="113" height="64" viewBox="0 0 113 64" fill="none" xmlns="http://www.w3.org/2000/svg">
<path fill-rule="evenodd" clip-rule="evenodd" d="M61.2318 32.3694L53.8363 36.6226L40.8212 29.1459L36.8875 29.5488L39.2027 26.3701C39.2027 21.0423 39.2027 16.2742 39.2027 10.9465V10.8346H42.4846V10.9465C42.4846 16.2518 42.4846 21.0199 42.4846 26.3477L53.8363 32.8618L57.0508 31.0038L53.0046 28.6758L45.7215 24.4897V16.0951C45.7215 12.4687 45.7215 9.40189 45.7215 5.79783V5.6859H48.9809V5.79783C48.9809 9.42427 48.9809 12.4911 48.9809 16.1175V22.6093L54.5332 25.8104L60.3326 29.1459L63.5471 27.2879L59.6133 25.0269L52.2179 20.7737V19.8335C52.2179 13.0955 52.2179 6.89472 52.2179 0.134314V0H55.4773V0.111927C55.4773 6.53655 55.4773 12.4239 55.4773 18.8709L61.1868 22.1392L65.188 24.4449V13.2746L58.6692 9.55859V5.79783L62.4456 7.96922C62.9402 7.45436 63.2998 6.80517 63.4797 6.11122C63.7719 4.99195 63.6145 3.80553 63.0301 2.82057L62.9626 2.70864L65.795 1.0745L65.8624 1.18643C66.8739 2.93249 67.1437 5.01434 66.6267 6.96188C66.3569 7.92445 65.9298 8.84225 65.3004 9.62574L68.38 11.3942V14.9535C69.3691 14.8192 70.4031 14.8863 71.3696 15.155L71.482 15.1773C73.3927 15.7146 75.0112 16.9682 76.0002 18.6918L76.0677 18.8038L73.2354 20.4379L73.1679 20.326C72.606 19.341 71.6843 18.6247 70.5829 18.3113L70.5379 18.2889C69.8411 18.1098 69.0993 18.0874 68.4025 18.2665V28.2057L61.2318 32.3694Z" fill="#FEC119"/>
<path d="M13.7794 44.9948V48.5093H8.7217V63.6418H5.03521V48.5093H0V44.9948H13.7794ZM17.4434 52.6058C17.7581 51.7552 18.2976 51.106 19.0394 50.6807C19.7812 50.2553 20.6129 50.0315 21.512 50.0315V53.8594C20.4555 53.7251 19.5114 53.9489 18.6797 54.5086C17.848 55.0682 17.4434 55.9636 17.4434 57.262V63.6194H13.9817V50.3001H17.4434V52.6058ZM33.1784 50.3001H36.6401V63.6194H33.1784V62.0525C32.1444 63.3508 30.6833 64 28.8176 64C27.0418 64 25.5132 63.3284 24.232 61.9629C22.9507 60.5974 22.3213 58.9409 22.3213 56.971C22.3213 55.001 22.9507 53.3445 24.232 51.979C25.5132 50.6135 27.0418 49.9419 28.8176 49.9419C30.6833 49.9419 32.1444 50.5911 33.1784 51.8895V50.3001ZM26.7945 59.6796C27.4913 60.3735 28.368 60.7317 29.447 60.7317C30.526 60.7317 31.4026 60.3735 32.0995 59.6796C32.7963 58.9857 33.156 58.0679 33.156 56.971C33.156 55.8741 32.7963 54.9787 32.0995 54.2623C31.4026 53.5684 30.5035 53.2102 29.447 53.2102C28.3905 53.2102 27.4913 53.5684 26.7945 54.2623C26.0977 54.9563 25.7605 55.8741 25.7605 56.971C25.7605 58.0679 26.0977 58.9633 26.7945 59.6796ZM46.1261 64C44.1031 64 42.4396 63.3284 41.0909 61.9853C39.7422 60.6422 39.0678 58.9633 39.0678 56.971C39.0678 54.9787 39.7422 53.3221 41.0909 51.9566C42.4396 50.6135 44.1255 49.9419 46.1261 49.9419C47.4299 49.9419 48.6213 50.2553 49.6777 50.8821C50.7567 51.5089 51.5659 52.3372 52.1054 53.3893L49.1383 55.113C48.8685 54.5533 48.4639 54.128 47.9244 53.8146C47.3849 53.5012 46.778 53.3445 46.0812 53.3445C45.0471 53.3445 44.193 53.6803 43.5186 54.3743C42.8442 55.0682 42.5071 55.9412 42.5071 56.9934C42.5071 58.0455 42.8442 58.8961 43.5186 59.5901C44.193 60.284 45.0471 60.6198 46.0812 60.6198C46.778 60.6198 47.4074 60.4631 47.9469 60.1497C48.4864 59.8363 48.891 59.411 49.1607 58.8513L52.1504 60.5526C51.5659 61.6048 50.7342 62.433 49.6553 63.0598C48.5988 63.6866 47.4299 64 46.1261 64ZM66.3119 63.6418H62.2882L57.4104 57.5978V63.6418H53.9487V44.9948H57.4104V56.1875L62.0185 50.3001H66.1321L60.7597 56.8814L66.3119 63.6418Z" fill="#FEC119"/>
<path d="M79.5068 53.9713C81.1478 54.9115 81.957 56.3442 81.957 58.2245C81.957 59.8139 81.395 61.1123 80.2711 62.1196C79.1472 63.127 77.776 63.6418 76.135 63.6418H68.2001V44.9948H75.5731C77.169 44.9948 78.5402 45.4872 79.6192 46.4722C80.7207 47.4572 81.2602 48.7107 81.2602 50.2329C81.2602 51.7775 80.6757 53.0087 79.5068 53.9713ZM75.5731 48.4197H71.8866V52.5163H75.5731C76.135 52.5163 76.6296 52.3148 77.0117 51.9342C77.3938 51.5537 77.5961 51.0612 77.5961 50.4792C77.5961 49.8972 77.4163 49.4047 77.0342 49.0241C76.6296 48.6212 76.1575 48.4197 75.5731 48.4197ZM76.135 60.1945C76.7644 60.1945 77.2814 59.993 77.6861 59.5677C78.0907 59.1423 78.293 58.6275 78.293 57.9783C78.293 57.3515 78.0907 56.8367 77.6861 56.4113C77.2814 55.986 76.7644 55.7845 76.135 55.7845H71.8866V60.1721H76.135V60.1945ZM87.3294 58.3812C87.8014 60.0602 89.0602 60.8884 91.1058 60.8884C92.432 60.8884 93.4211 60.4407 94.0954 59.5677L96.8828 61.157C95.5566 63.0598 93.6234 64 91.0608 64C88.8579 64 87.0821 63.3284 85.7334 62.0077C84.4072 60.6869 83.7328 59.008 83.7328 56.971C83.7328 54.9563 84.3847 53.2998 85.7109 51.9566C87.0372 50.6135 88.723 49.9419 90.7911 49.9419C92.7467 49.9419 94.3652 50.6135 95.6465 51.9566C96.9277 53.2998 97.5571 54.9787 97.5571 56.971C97.5571 57.4187 97.5122 57.8888 97.4223 58.3812H87.3294ZM87.2844 55.7174H94.0954C93.8931 54.822 93.4885 54.128 92.8816 53.7027C92.2747 53.255 91.5778 53.0311 90.7911 53.0311C89.8695 53.0311 89.1052 53.255 88.4983 53.7475C87.8913 54.1952 87.4867 54.8667 87.2844 55.7174ZM102.772 58.3812C103.244 60.0602 104.503 60.8884 106.549 60.8884C107.875 60.8884 108.864 60.4407 109.538 59.5677L112.326 61.157C110.999 63.0598 109.066 64 106.504 64C104.301 64 102.525 63.3284 101.176 62.0077C99.85 60.6869 99.1756 59.008 99.1756 56.971C99.1756 54.9563 99.8275 53.2998 101.154 51.9566C102.48 50.6135 104.166 49.9419 106.234 49.9419C108.19 49.9419 109.808 50.6135 111.089 51.9566C112.371 53.2998 113 54.9787 113 56.971C113 57.4187 112.955 57.8888 112.865 58.3812H102.772ZM102.727 55.7174H109.538C109.336 54.822 108.931 54.128 108.324 53.7027C107.717 53.255 107.021 53.0311 106.234 53.0311C105.312 53.0311 104.548 53.255 103.941 53.7475C103.312 54.1952 102.907 54.8667 102.727 55.7174Z" fill="black"/>
</svg>
