<svg width="79" height="72" viewBox="0 0 79 72" fill="none" xmlns="http://www.w3.org/2000/svg">
<path fill-rule="evenodd" clip-rule="evenodd" d="M49.0861 63.6381L34.1744 72L7.9317 57.3007L0 58.0929L4.6684 51.8435C4.6684 41.3692 4.6684 31.9951 4.6684 21.5208V21.3007H11.2857V21.5208C11.2857 31.9511 11.2857 41.3252 11.2857 51.7995L34.1744 64.6064L40.6558 60.9535L32.4974 56.3765L17.8124 48.1467V31.643C17.8124 24.5134 17.8124 18.4841 17.8124 11.3985V11.1785H24.3844V11.3985C24.3844 18.5281 24.3844 24.5575 24.3844 31.687V44.4499L35.5795 50.7433L47.2731 57.3007L53.7545 53.6479L45.8227 49.2029L30.9111 40.8411V38.9927C30.9111 25.7457 30.9111 13.555 30.9111 0.26406V0H37.4831V0.22005C37.4831 12.8509 37.4831 24.4254 37.4831 37.1002L48.9954 43.5257L57.0631 48.0587V26.0978L43.9191 18.7922V11.3985L51.5336 15.6675C52.5307 14.6553 53.2559 13.379 53.6185 12.0147C54.2077 9.8142 53.8904 7.4817 52.712 5.5452L52.576 5.3252L58.2869 2.1125L58.4228 2.3325C60.4624 5.7653 61.0063 9.8582 59.9639 13.687C59.42 15.5795 58.5588 17.3839 57.2897 18.9242L63.4991 22.401V29.3985C65.4934 29.1345 67.5783 29.2665 69.5273 29.7946L69.7539 29.8386C73.6064 30.8949 76.8698 33.3594 78.864 36.7482L79 36.9682L73.2892 40.1809L73.1532 39.9609C72.0201 38.0244 70.1618 36.6161 67.9409 36L67.8503 35.956C66.4452 35.6039 64.9495 35.5599 63.5445 35.912V55.4523L49.0861 63.6381Z" fill="#FEC119"/>
</svg>
