<svg width="113" height="64" viewBox="0 0 113 64" fill="none" xmlns="http://www.w3.org/2000/svg">
<path fill-rule="evenodd" clip-rule="evenodd" d="M61.232 32.3694L53.8366 36.6226L40.8215 29.1459L36.8877 29.5488L39.203 26.3701C39.203 21.0423 39.203 16.2742 39.203 10.9465V10.8346H42.4849V10.9465C42.4849 16.2518 42.4849 21.0199 42.4849 26.3477L53.8366 32.8618L57.051 31.0038L53.0049 28.6758L45.7218 24.4897V16.0951C45.7218 12.4687 45.7218 9.40189 45.7218 5.79783V5.6859H48.9812V5.79783C48.9812 9.42427 48.9812 12.4911 48.9812 16.1175V22.6093L54.5334 25.8104L60.3329 29.1459L63.5473 27.2879L59.6136 25.0269L52.2181 20.7737V19.8335C52.2181 13.0955 52.2181 6.89472 52.2181 0.134314V0H55.4775V0.111927C55.4775 6.53655 55.4775 12.4239 55.4775 18.8709L61.1871 22.1392L65.1883 24.4449V13.2746L58.6695 9.55859V5.79783L62.4459 7.96922C62.9404 7.45436 63.3001 6.80517 63.4799 6.11122C63.7721 4.99195 63.6148 3.80553 63.0303 2.82057L62.9629 2.70864L65.7952 1.0745L65.8626 1.18643C66.8742 2.93249 67.1439 5.01434 66.6269 6.96188C66.3572 7.92445 65.9301 8.84225 65.3007 9.62574L68.3802 11.3942V14.9535C69.3693 14.8192 70.4033 14.8863 71.3699 15.155L71.4823 15.1773C73.393 15.7146 75.0114 16.9682 76.0005 18.6918L76.0679 18.8038L73.2356 20.4379L73.1682 20.326C72.6062 19.341 71.6846 18.6247 70.5831 18.3113L70.5382 18.2889C69.8413 18.1098 69.0995 18.0874 68.4027 18.2665V28.2057L61.232 32.3694Z" fill="#FEC119"/>
<path d="M13.7794 44.9948V48.5093H8.7217V63.6418H5.03521V48.5093H0V44.9948H13.7794ZM17.4434 52.6058C17.7581 51.7552 18.2976 51.106 19.0394 50.6807C19.7812 50.2553 20.6129 50.0315 21.512 50.0315V53.8594C20.4555 53.7251 19.5114 53.9489 18.6797 54.5086C17.848 55.0682 17.4434 55.9636 17.4434 57.262V63.6194H13.9817V50.3001H17.4434V52.6058ZM33.1784 50.3001H36.6401V63.6194H33.1784V62.0525C32.1444 63.3508 30.6833 64 28.8176 64C27.0418 64 25.5132 63.3284 24.232 61.9629C22.9507 60.5974 22.3213 58.9409 22.3213 56.971C22.3213 55.001 22.9507 53.3445 24.232 51.979C25.5132 50.6135 27.0418 49.9419 28.8176 49.9419C30.6833 49.9419 32.1444 50.5911 33.1784 51.8895V50.3001ZM26.7945 59.6796C27.4913 60.3735 28.368 60.7317 29.447 60.7317C30.526 60.7317 31.4026 60.3735 32.0995 59.6796C32.7963 58.9857 33.156 58.0679 33.156 56.971C33.156 55.8741 32.7963 54.9787 32.0995 54.2623C31.4026 53.5684 30.5035 53.2102 29.447 53.2102C28.3905 53.2102 27.4913 53.5684 26.7945 54.2623C26.0977 54.9563 25.7605 55.8741 25.7605 56.971C25.7605 58.0679 26.0977 58.9633 26.7945 59.6796ZM46.1261 64C44.1031 64 42.4396 63.3284 41.0909 61.9853C39.7422 60.6422 39.0678 58.9633 39.0678 56.971C39.0678 54.9787 39.7422 53.3221 41.0909 51.9566C42.4396 50.6135 44.1255 49.9419 46.1261 49.9419C47.4299 49.9419 48.6213 50.2553 49.6777 50.8821C50.7567 51.5089 51.5659 52.3372 52.1054 53.3893L49.1383 55.113C48.8685 54.5533 48.4639 54.128 47.9244 53.8146C47.3849 53.5012 46.778 53.3445 46.0812 53.3445C45.0471 53.3445 44.193 53.6803 43.5186 54.3743C42.8442 55.0682 42.5071 55.9412 42.5071 56.9934C42.5071 58.0455 42.8442 58.8961 43.5186 59.5901C44.193 60.284 45.0471 60.6198 46.0812 60.6198C46.778 60.6198 47.4074 60.4631 47.9469 60.1497C48.4864 59.8363 48.891 59.411 49.1607 58.8513L52.1504 60.5526C51.5659 61.6048 50.7342 62.433 49.6553 63.0598C48.5988 63.6866 47.4299 64 46.1261 64ZM66.3119 63.6418H62.2882L57.4104 57.5978V63.6418H53.9487V44.9948H57.4104V56.1875L62.0185 50.3001H66.1321L60.7597 56.8814L66.3119 63.6418Z" fill="#F2B202"/>
<path d="M79.5069 53.9713C81.1479 54.9115 81.9571 56.3442 81.9571 58.2245C81.9571 59.8139 81.3951 61.1123 80.2712 62.1196C79.1473 63.127 77.7761 63.6418 76.1352 63.6418H68.2002V44.9948H75.5732C77.1692 44.9948 78.5404 45.4872 79.6193 46.4722C80.7208 47.4572 81.2603 48.7107 81.2603 50.2329C81.2603 51.7775 80.6758 53.0087 79.5069 53.9713ZM75.5732 48.4197H71.8867V52.5163H75.5732C76.1352 52.5163 76.6297 52.3148 77.0118 51.9342C77.394 51.5537 77.5963 51.0612 77.5963 50.4792C77.5963 49.8972 77.4164 49.4047 77.0343 49.0241C76.6297 48.6212 76.1576 48.4197 75.5732 48.4197ZM76.1352 60.1945C76.7646 60.1945 77.2816 59.993 77.6862 59.5677C78.0908 59.1423 78.2931 58.6275 78.2931 57.9783C78.2931 57.3515 78.0908 56.8367 77.6862 56.4113C77.2816 55.986 76.7646 55.7845 76.1352 55.7845H71.8867V60.1721H76.1352V60.1945ZM87.3295 58.3812C87.8015 60.0602 89.0604 60.8884 91.1059 60.8884C92.4321 60.8884 93.4212 60.4407 94.0956 59.5677L96.8829 61.157C95.5567 63.0598 93.6235 64 91.061 64C88.858 64 87.0822 63.3284 85.7335 62.0077C84.4073 60.6869 83.7329 59.008 83.7329 56.971C83.7329 54.9563 84.3848 53.2998 85.711 51.9566C87.0373 50.6135 88.7232 49.9419 90.7912 49.9419C92.7468 49.9419 94.3653 50.6135 95.6466 51.9566C96.9279 53.2998 97.5573 54.9787 97.5573 56.971C97.5573 57.4187 97.5123 57.8888 97.4224 58.3812H87.3295ZM87.2845 55.7174H94.0956C93.8933 54.822 93.4886 54.128 92.8817 53.7027C92.2748 53.255 91.578 53.0311 90.7912 53.0311C89.8696 53.0311 89.1053 53.255 88.4984 53.7475C87.8915 54.1952 87.4868 54.8667 87.2845 55.7174ZM102.772 58.3812C103.244 60.0602 104.503 60.8884 106.549 60.8884C107.875 60.8884 108.864 60.4407 109.538 59.5677L112.326 61.157C110.999 63.0598 109.066 64 106.504 64C104.301 64 102.525 63.3284 101.176 62.0077C99.8501 60.6869 99.1757 59.008 99.1757 56.971C99.1757 54.9563 99.8276 53.2998 101.154 51.9566C102.48 50.6135 104.166 49.9419 106.234 49.9419C108.19 49.9419 109.808 50.6135 111.089 51.9566C112.371 53.2998 113 54.9787 113 56.971C113 57.4187 112.955 57.8888 112.865 58.3812H102.772ZM102.727 55.7174H109.538C109.336 54.822 108.931 54.128 108.325 53.7027C107.718 53.255 107.021 53.0311 106.234 53.0311C105.312 53.0311 104.548 53.255 103.941 53.7475C103.312 54.1952 102.907 54.8667 102.727 55.7174Z" fill="white"/>
</svg>
