<svg width="22" height="20" viewBox="0 0 22 20" fill="none" xmlns="http://www.w3.org/2000/svg">
<path d="M1.33301 1H3.83301L5.83301 15H16.333M16.333 15C15.2284 15 14.333 15.8954 14.333 17C14.333 18.1046 15.2284 19 16.333 19C17.4376 19 18.333 18.1046 18.333 17C18.333 15.8954 17.4376 15 16.333 15ZM5.40443 12H17.333L20.333 3H4.11871M10.333 17C10.333 18.1046 9.43758 19 8.33301 19C7.22844 19 6.33301 18.1046 6.33301 17C6.33301 15.8954 7.22844 15 8.33301 15C9.43758 15 10.333 15.8954 10.333 17Z" stroke="#191919" stroke-width="1.5" stroke-linecap="round" stroke-linejoin="round"/>
</svg>
