<svg width="22" height="14" viewBox="0 0 22 14" fill="none" xmlns="http://www.w3.org/2000/svg">
<path d="M5 4.5V9.5M17 4.5V9.5M2.11111 1H19.8889C20.5025 1 21 1.53726 21 2.2V11.8C21 12.4627 20.5025 13 19.8889 13H2.11111C1.49746 13 1 12.4627 1 11.8V2.2C1 1.53726 1.49746 1 2.11111 1ZM13.5 7C13.5 8.38071 12.3807 9.5 11 9.5C9.61929 9.5 8.5 8.38071 8.5 7C8.5 5.61929 9.61929 4.5 11 4.5C12.3807 4.5 13.5 5.61929 13.5 7Z" stroke="black" stroke-width="1.5" stroke-linecap="round" stroke-linejoin="round"/>
</svg>
